# xmcd CD database file
#
# Track frame offsets:
#	150
#	41187
#	68895
#	97125
#	132532
#	161152
#	180975
#	218260
#	242262
#	265587
#	292145
#	322135
#
# Disc length: 4596 seconds
#
# Revision: 0
# Processed by: cddbd v1.5.2PL0 Copyright (c) Steve Scherf et al.
# Submitted via: CDex 1.70beta2
#
DISCID=b311f20c
DTITLE=Miles Davis - Steamin' and Relaxin'
DYEAR=1956
DGENRE=Jazz
TTITLE0=Surrey With The Fringe On Top
TTITLE1=Salt Peanuts
TTITLE2=Something I Dreamed Last Night
TTITLE3=Diane
TTITLE4=Well, You Needn't
TTITLE5=When I Fall In Love
TTITLE6=If I Were A Bell
TTITLE7=You're My Everything
TTITLE8=I Could Write A Book
TTITLE9=Oleo
TTITLE10=It Could Happen To You
TTITLE11=Woody'n You
EXTD=YEAR: 1956
EXTT0=
EXTT1=
EXTT2=
EXTT3=
EXTT4=
EXTT5=
EXTT6=
EXTT7=
EXTT8=
EXTT9=
EXTT10=
EXTT11=
PLAYORDER=
